<mxfile host="app.diagrams.net" modified="2023-10-20T05:46:11.659Z" agent="Mozilla/5.0 (Windows NT 10.0; Win64; x64) AppleWebKit/537.36 (KHTML, like Gecko) Chrome/118.0.0.0 Safari/537.36" version="22.0.5" etag="79va3pdXDlS-n-66J_SN" type="github">
  <diagram name="Страница — 1" id="G1I-6y7RzBWqB7RcNpnC">
    <mxGraphModel>
      <root>
        <mxCell id="0" />
        <mxCell id="1" parent="0" />
      </root>
    </mxGraphModel>
  </diagram>
</mxfile>
